<?xml version="1.0" encoding="utf-8"?>
<svg viewBox="0 0 384 336" xmlns="http://www.w3.org/2000/svg" width="100%" preserveAspectRatio="xMidYMid meet" role="img"><defs><linearGradient id="g16839" x1="0" y1="0" x2="0" y2="1"><stop offset="0" stop-color="#1e2b3c"/><stop offset="1" stop-color="#151d29"/></linearGradient><clipPath id="cg16839"><rect x="4" y="4" width="376" height="328" rx="12"/></clipPath></defs><rect x="4" y="4" width="376" height="328" rx="12" fill="url(#g16839)" stroke="#3a5170"/><g clip-path="url(#cg16839)" stroke="#2b3d52" stroke-width="1" opacity="0.45"><line x1="28" y1="4" x2="28" y2="332"/><line x1="52" y1="4" x2="52" y2="332"/><line x1="76" y1="4" x2="76" y2="332"/><line x1="100" y1="4" x2="100" y2="332"/><line x1="124" y1="4" x2="124" y2="332"/><line x1="148" y1="4" x2="148" y2="332"/><line x1="172" y1="4" x2="172" y2="332"/><line x1="196" y1="4" x2="196" y2="332"/><line x1="220" y1="4" x2="220" y2="332"/><line x1="244" y1="4" x2="244" y2="332"/><line x1="268" y1="4" x2="268" y2="332"/><line x1="292" y1="4" x2="292" y2="332"/><line x1="316" y1="4" x2="316" y2="332"/><line x1="340" y1="4" x2="340" y2="332"/><line x1="364" y1="4" x2="364" y2="332"/><line x1="4" y1="28" x2="380" y2="28"/><line x1="4" y1="52" x2="380" y2="52"/><line x1="4" y1="76" x2="380" y2="76"/><line x1="4" y1="100" x2="380" y2="100"/><line x1="4" y1="124" x2="380" y2="124"/><line x1="4" y1="148" x2="380" y2="148"/><line x1="4" y1="172" x2="380" y2="172"/><line x1="4" y1="196" x2="380" y2="196"/><line x1="4" y1="220" x2="380" y2="220"/><line x1="4" y1="244" x2="380" y2="244"/><line x1="4" y1="268" x2="380" y2="268"/><line x1="4" y1="292" x2="380" y2="292"/><line x1="4" y1="316" x2="380" y2="316"/></g><g transform="translate(196.36,224.85) scale(1.2392)"><g opacity="0.40" fill="none" stroke="#5fd4ff" stroke-width="2.4" stroke-dasharray="7 6" stroke-linecap="round" stroke-linejoin="round"><polyline points="-19.6,-0.0 -36.5,-29.9 0.0,-48.8 36.5,-29.9 19.6,-0.0"/><polyline points="0.0,-48.8 14.8,-85.6"/><polyline points="-56.1,-75.2 90.4,-70.0"/><circle cx="23.3" cy="-99.4" r="10.3"/></g><line x1="74.5" y1="-34.6" x2="-51.3" y2="-75.5" stroke="#a9ecff" stroke-width="2.6" opacity="0.42" stroke-linecap="round"/><line x1="81.3" y1="-68.9" x2="-48.5" y2="-71.5" stroke="#a9ecff" stroke-width="1.9" opacity="0.26" stroke-linecap="round"/><line x1="86.7" y1="-95.8" x2="-46.2" y2="-68.3" stroke="#a9ecff" stroke-width="1.2" opacity="0.15" stroke-linecap="round"/><path d="M -1.5 -96.2 Q -23.2 -75.1 -28.7 -26.7 L -7.8 -57.1 Z" fill="#2a4d75" opacity="0.85"/><polygon points="-18.0,1.9 -35.9,-30.8 -13.0,-60.3 -2.8,-51.1 -25.9,-29.6 -11.0,-1.9" fill="#7d9cbb" opacity="1.00"/><circle cx="-14.5" cy="-0.0" r="4.0" fill="#7d9cbb"/><circle cx="-7.9" cy="-55.7" r="6.9" fill="#7d9cbb"/><polygon points="-4.0,-91.4 -23.6,-93.2 -21.5,-73.7 -27.0,-73.1 -29.6,-98.3 -4.4,-101.9" fill="#7d9cbb" opacity="1.00"/><circle cx="-4.2" cy="-96.6" r="5.3" fill="#7d9cbb"/><circle cx="-24.2" cy="-73.4" r="2.8" fill="#7d9cbb"/><path d="M -9.7 -57.4 L -38.1 -23.0 Q -22.2 -12.4 -2.9 -21.6 Q -2.9 -21.6 12.6 -12.4 Q 12.6 -12.4 28.5 -23.0 L 9.7 -54.0 Z" fill="#3f6fa2"/><polygon points="10.8,-2.0 25.4,-29.5 2.3,-50.7 13.5,-60.7 36.4,-30.8 18.2,2.0" fill="#dfeaf7" opacity="1.00"/><circle cx="14.5" cy="-0.0" r="4.2" fill="#dfeaf7"/><circle cx="7.9" cy="-55.7" r="7.5" fill="#dfeaf7"/><polygon points="18.4,-92.7 14.4,-78.1 8.9,-67.8 9.4,-54.0 -9.4,-57.3 -4.2,-70.1 -5.9,-81.7 -4.6,-96.7" fill="#3f6fa2"/><polygon points="-9.4,-57.3 -4.2,-70.1 -5.9,-81.7 -4.6,-96.7 18.4,-92.7" fill="#2a4d75" opacity="0.55"/><polygon points="10.3,-107.7 -2.6,-98.2 -14.8,-72.8 -17.3,-73.8 -8.6,-102.0 4.1,-114.9" fill="#a8d8f2" opacity="1.00"/><circle cx="7.2" cy="-111.3" r="4.8" fill="#a8d8f2"/><circle cx="-16.1" cy="-73.3" r="1.3" fill="#a8d8f2"/><polygon points="10.4,-109.5 -0.6,-92.3 -10.5,-75.2 -12.3,-76.1 -5.5,-94.9 4.0,-113.2" fill="#6ba7cd" opacity="1.00"/><circle cx="7.2" cy="-111.3" r="3.7" fill="#6ba7cd"/><circle cx="-11.4" cy="-75.7" r="1.0" fill="#6ba7cd"/><polygon points="7.0,-108.2 1.0,-110.3 -6.7,-91.5 -8.4,-92.1 -2.8,-113.2 7.4,-114.5" fill="#a8d8f2" opacity="1.00"/><circle cx="7.2" cy="-111.3" r="3.2" fill="#a8d8f2"/><circle cx="-7.5" cy="-91.8" r="0.9" fill="#a8d8f2"/><polygon points="13.8,-123.3 20.7,-111.1 -2.1,-109.3 9.3,-119.6" fill="#a8d8f2"/><circle cx="10.7" cy="-110.5" r="10.3" fill="#dfeaf7"/><polygon points="23.6,-92.2 17.8,-66.6 -4.9,-79.3 -2.0,-84.3 14.0,-74.2 12.3,-93.3" fill="#dfeaf7" opacity="1.00"/><circle cx="17.9" cy="-92.7" r="5.7" fill="#dfeaf7"/><circle cx="-3.4" cy="-81.8" r="2.9" fill="#dfeaf7"/><polygon points="-45.0,-67.5 67.8,-112.5 69.1,-109.3 -43.3,-63.3" fill="#c3d2e2" opacity="1.00"/><circle cx="-44.2" cy="-65.4" r="2.2" fill="#c3d2e2"/><circle cx="68.4" cy="-110.9" r="1.7" fill="#c3d2e2"/><line x1="-44.2" y1="-65.4" x2="68.4" y2="-110.9" stroke="#8fa3b8" stroke-width="1.6" opacity="0.7"/><polygon points="-45.5,-68.6 -41.0,-69.8 -38.8,-64.4 -42.9,-62.2" fill="#8fa3b8" opacity="1.00"/><circle cx="-44.2" cy="-65.4" r="3.4" fill="#8fa3b8"/><circle cx="-39.9" cy="-67.1" r="2.9" fill="#8fa3b8"/><polygon points="91.7,-120.3 80.0,-121.0 67.6,-112.8 69.2,-108.9 83.8,-111.7" fill="#a9ecff"/><line x1="68.4" y1="-110.9" x2="91.7" y2="-120.3" stroke="#ffffff" stroke-width="1.4" opacity="0.85"/><circle cx="-24.2" cy="-73.4" r="3.7" fill="#dfeaf7"/><circle cx="-3.4" cy="-81.8" r="3.7" fill="#dfeaf7"/><rect x="-21.1" y="-3.0" width="13.2" height="6" rx="3" fill="#93b6d6"/><rect x="7.9" y="-3.0" width="13.2" height="6" rx="3" fill="#93b6d6"/></g><path d="M 192.1 123.4 Q 203.0 133.2 207.7 133.8" fill="none" stroke="#111a26" stroke-width="7.4" stroke-linecap="round" opacity="0.75"/><polygon points="217.6,134.9 204.2,138.9 205.4,128.0" fill="none" stroke="#111a26" stroke-width="3" stroke-linejoin="round" opacity="0.75"/><path d="M 192.1 123.4 Q 203.0 133.2 207.7 133.8" fill="none" stroke="#69dcff" stroke-width="4.4" stroke-linecap="round"/><polygon points="217.6,134.9 204.2,138.9 205.4,128.0" fill="#69dcff"/><path d="M 309.9 75.8 Q 294.2 106.6 304.3 128.9" fill="none" stroke="#111a26" stroke-width="6.8" stroke-linecap="round" opacity="0.75"/><polygon points="308.4,138.1 298.1,128.5 308.0,124.1" fill="none" stroke="#111a26" stroke-width="3" stroke-linejoin="round" opacity="0.75"/><path d="M 309.9 75.8 Q 294.2 106.6 304.3 128.9" fill="none" stroke="#69dcff" stroke-width="3.8" stroke-linecap="round"/><polygon points="308.4,138.1 298.1,128.5 308.0,124.1" fill="#69dcff"/><path d="M 204.9 107.5 Q 206.0 116.5 205.1 116.3" fill="none" stroke="#111a26" stroke-width="7.0" stroke-linecap="round" opacity="0.75"/><polygon points="214.7,118.8 200.9,120.8 203.7,110.3" fill="none" stroke="#111a26" stroke-width="3" stroke-linejoin="round" opacity="0.75"/><path d="M 204.9 107.5 Q 206.0 116.5 205.1 116.3" fill="none" stroke="#ffc83d" stroke-width="4.0" stroke-linecap="round"/><polygon points="214.7,118.8 200.9,120.8 203.7,110.3" fill="#ffc83d"/><line x1="309.9" y1="75.8" x2="244.8" y2="60.9" stroke="#ffc83d" stroke-width="1.4" opacity="0.8"/><circle cx="309.9" cy="75.8" r="2.8" fill="#ffc83d"/><text x="240.8" y="64.9" fill="#e8f4ff" font-size="12.5" text-anchor="start" font-family="Segoe UI, Roboto, sans-serif" paint-order="stroke" stroke="#111a26" stroke-width="3.4" stroke-linejoin="round">копьё обгоняет корпус</text><line x1="309.9" y1="75.8" x2="313.5" y2="76.4" stroke="#69dcff" stroke-width="1.4" opacity="0.8"/><circle cx="309.9" cy="75.8" r="2.8" fill="#69dcff"/><text x="309.5" y="80.4" fill="#e8f4ff" font-size="12.5" text-anchor="start" font-family="Segoe UI, Roboto, sans-serif" paint-order="stroke" stroke="#111a26" stroke-width="3.4" stroke-linejoin="round">наконечник</text><line x1="192.1" y1="123.4" x2="171.6" y2="101.1" stroke="#69dcff" stroke-width="1.4" opacity="0.8"/><circle cx="192.1" cy="123.4" r="2.8" fill="#69dcff"/><text x="175.6" y="105.1" fill="#e8f4ff" font-size="12.5" text-anchor="end" font-family="Segoe UI, Roboto, sans-serif" paint-order="stroke" stroke="#111a26" stroke-width="3.4" stroke-linejoin="round">кисть</text><line x1="196.4" y1="155.8" x2="183.9" y2="172.9" stroke="#ffc83d" stroke-width="1.4" opacity="0.8"/><circle cx="196.4" cy="155.8" r="2.8" fill="#ffc83d"/><text x="187.9" y="176.9" fill="#e8f4ff" font-size="12.5" text-anchor="end" font-family="Segoe UI, Roboto, sans-serif" paint-order="stroke" stroke="#111a26" stroke-width="3.4" stroke-linejoin="round">таз</text><line x1="204.9" y1="107.5" x2="238.9" y2="92.6" stroke="#ffc83d" stroke-width="1.4" opacity="0.8"/><circle cx="204.9" cy="107.5" r="2.8" fill="#ffc83d"/><text x="234.9" y="96.6" fill="#e8f4ff" font-size="12.5" text-anchor="start" font-family="Segoe UI, Roboto, sans-serif" paint-order="stroke" stroke="#111a26" stroke-width="3.4" stroke-linejoin="round">вращение корпуса</text><line x1="16" y1="292" x2="368" y2="292" stroke="#3a5170" opacity="0.7"/><circle cx="30" cy="312" r="12" fill="#69dcff" opacity="0.28"/><text x="30" y="317" fill="#69dcff" font-size="13" font-weight="700" text-anchor="middle" font-family="Segoe UI, Roboto, sans-serif">2</text><text x="50" y="311" fill="#e8f4ff" font-size="13.5" font-weight="700" font-family="Segoe UI, Roboto, sans-serif">ВЗМАХ</text><text x="50" y="327" fill="#9db6cf" font-size="11" font-family="Segoe UI, Roboto, sans-serif">ACCELERATION · 33.45 С</text></svg>