<?xml version="1.0" encoding="utf-8"?>
<svg viewBox="53 5 187 237" xmlns="http://www.w3.org/2000/svg" role="img" width="100%" preserveAspectRatio="xMidYMid meet"><g opacity="0.45" fill="none" stroke="#5fd4ff" stroke-width="2.6" stroke-dasharray="6 5" stroke-linecap="round" stroke-linejoin="round"><polyline points="109.4,187.4 93.2,157.2 125.4,133.0 157.6,157.2 141.4,187.4"/><polyline points="125.4,133.0 133.6,94.3"/><polyline points="78.2,111.7 220.4,76.2"/><circle cx="138.3" cy="78.7" r="10.3"/></g><polyline points="111.6,187.4 96.3,156.7 117.5,129.7" fill="none" stroke="#6f768c" stroke-width="9.0" stroke-linecap="round" stroke-linejoin="round"/><polyline points="100.6,92.5 78.7,97.1 83.8,118.9" fill="none" stroke="#6f768c" stroke-width="7.5" stroke-linecap="round" stroke-linejoin="round"/><polygon points="112.7,120.4 100.0,156.1 108.8,165.3 128.6,158.7 154.7,165.3 163.4,156.1 138.1,120.4" fill="#3b4a6b"/><polyline points="139.2,187.4 154.5,156.7 133.3,129.7" fill="none" stroke="#cfd3e0" stroke-width="10.0" stroke-linecap="round" stroke-linejoin="round"/><polygon points="101.3,96.3 122.4,88.6 132.8,127.0 118.0,132.4" fill="#28324a"/><polyline points="101.3,96.3 122.4,88.6" fill="none" stroke="#3b4a6b" stroke-width="2.2" stroke-linecap="round"/><polygon points="90.9,75.4 98.6,65.4 113.1,70.2" fill="#3b4a6b"/><circle cx="104.7" cy="77.9" r="10.3" fill="#cfd3e0"/><polyline points="123.1,92.5 111.6,111.7 97.9,134.6" fill="none" stroke="#28324a" stroke-width="12.0" stroke-linecap="round" stroke-linejoin="round"/><polyline points="123.1,92.5 111.6,111.7 97.9,134.6" fill="none" stroke="#cfd3e0" stroke-width="8.0" stroke-linecap="round" stroke-linejoin="round"/><line x1="78.3" y1="112.9" x2="161.4" y2="205.1" stroke="#c8a271" stroke-width="4.0" stroke-linecap="round"/><polygon points="176.4,221.7 165.0,201.8 157.7,208.4" fill="#9be8ff"/><rect x="105.7" y="184.9" width="11.9" height="5" rx="2.5" fill="#cfd3e0"/><rect x="133.3" y="184.9" width="11.9" height="5" rx="2.5" fill="#cfd3e0"/><path d="M 97.9 134.6 Q 117.0 122.1 121.0 108.9" fill="none" stroke="#ffb020" stroke-width="3.2" stroke-linecap="round" opacity="0.95"/><polygon points="123.7,100.3 125.3,113.2 115.1,110.1" fill="#ffb020"/><path d="M 176.4 221.7 Q 230.4 158.7 221.4 85.2" fill="none" stroke="#9be8ff" stroke-width="3.2" stroke-linecap="round" opacity="0.95"/><polygon points="220.4,76.2 227.1,87.4 216.5,88.6" fill="#9be8ff"/></svg>