<?xml version="1.0" encoding="utf-8"?>
<svg viewBox="53 5 187 237" xmlns="http://www.w3.org/2000/svg" role="img" width="100%" preserveAspectRatio="xMidYMid meet"><g opacity="0.45" fill="none" stroke="#5fd4ff" stroke-width="2.6" stroke-dasharray="6 5" stroke-linecap="round" stroke-linejoin="round"><polyline points="105.1,187.4 87.8,157.8 125.4,140.7 163.0,157.8 145.7,187.4"/><polyline points="125.4,140.7 142.8,105.1"/><polyline points="72.9,104.6 208.8,159.4"/><circle cx="152.8" cy="92.3" r="10.3"/></g><polyline points="109.4,187.4 94.5,156.6 117.5,131.1" fill="none" stroke="#6f768c" stroke-width="9.0" stroke-linecap="round" stroke-linejoin="round"/><polyline points="126.4,93.4 115.1,74.1 118.2,96.3" fill="none" stroke="#6f768c" stroke-width="7.5" stroke-linecap="round" stroke-linejoin="round"/><polygon points="112.7,121.8 88.0,157.5 96.7,166.7 122.5,160.1 142.7,166.7 151.4,157.5 138.1,121.8" fill="#3b4a6b"/><polyline points="141.4,187.4 156.3,156.6 133.3,131.1" fill="none" stroke="#cfd3e0" stroke-width="10.0" stroke-linecap="round" stroke-linejoin="round"/><polygon points="127.0,90.0 148.3,96.9 132.9,133.5 117.9,128.6" fill="#28324a"/><polyline points="127.0,90.0 148.3,96.9" fill="none" stroke="#3b4a6b" stroke-width="2.2" stroke-linecap="round"/><polygon points="131.0,71.0 151.0,66.4 153.2,79.4" fill="#3b4a6b"/><circle cx="144.9" cy="78.9" r="10.3" fill="#cfd3e0"/><polyline points="148.9,93.4 130.5,106.3 135.7,84.5" fill="none" stroke="#28324a" stroke-width="12.0" stroke-linecap="round" stroke-linejoin="round"/><polyline points="148.9,93.4 130.5,106.3 135.7,84.5" fill="none" stroke="#cfd3e0" stroke-width="8.0" stroke-linecap="round" stroke-linejoin="round"/><line x1="81.0" y1="121.3" x2="183.9" y2="52.0" stroke="#c8a271" stroke-width="4.0" stroke-linecap="round"/><polygon points="202.5,39.4 181.1,47.9 186.7,56.1" fill="#9be8ff"/><rect x="103.5" y="184.9" width="11.9" height="5" rx="2.5" fill="#cfd3e0"/><rect x="135.4" y="184.9" width="11.9" height="5" rx="2.5" fill="#cfd3e0"/><path d="M 135.7 84.5 Q 129.7 109.2 136.9 123.9" fill="none" stroke="#ffb020" stroke-width="3.2" stroke-linecap="round" opacity="0.95"/><polygon points="140.8,132.0 130.9,123.7 140.4,119.0" fill="#ffb020"/><path d="M 202.5 39.4 Q 179.2 100.8 204.7 151.4" fill="none" stroke="#9be8ff" stroke-width="3.2" stroke-linecap="round" opacity="0.95"/><polygon points="208.8,159.4 198.7,151.2 208.2,146.5" fill="#9be8ff"/></svg>