<?xml version="1.0" encoding="utf-8"?>
<svg viewBox="50 40 189 170" xmlns="http://www.w3.org/2000/svg" role="img" width="100%" preserveAspectRatio="xMidYMid meet"><polyline points="110.2,187.4 94.8,156.7 117.5,130.9" fill="none" stroke="#6f768c" stroke-width="9.0" stroke-linecap="round" stroke-linejoin="round"/><polyline points="125.1,92.9 104.1,85.1 120.4,100.5" fill="none" stroke="#6f768c" stroke-width="7.5" stroke-linecap="round" stroke-linejoin="round"/><polygon points="112.7,121.7 88.6,157.3 97.3,166.6 122.9,160.0 143.3,166.6 152.0,157.3 138.1,121.7" fill="#3b4a6b"/><polyline points="140.6,187.4 156.0,156.7 133.3,130.9" fill="none" stroke="#cfd3e0" stroke-width="10.0" stroke-linecap="round" stroke-linejoin="round"/><polygon points="125.5,89.8 147.1,96.0 133.0,133.1 117.8,128.7" fill="#28324a"/><polyline points="125.5,89.8 147.1,96.0" fill="none" stroke="#3b4a6b" stroke-width="2.2" stroke-linecap="round"/><polygon points="128.5,70.4 148.2,65.2 151.2,78.0" fill="#3b4a6b"/><circle cx="142.7" cy="77.9" r="10.3" fill="#cfd3e0"/><polyline points="147.5,92.9 163.0,109.1 140.8,105.6" fill="none" stroke="#28324a" stroke-width="12.0" stroke-linecap="round" stroke-linejoin="round"/><polyline points="147.5,92.9 163.0,109.1 140.8,105.6" fill="none" stroke="#cfd3e0" stroke-width="8.0" stroke-linecap="round" stroke-linejoin="round"/><line x1="76.9" y1="89.6" x2="197.3" y2="119.7" stroke="#c8a271" stroke-width="4.0" stroke-linecap="round"/><polygon points="219.0,125.1 198.5,114.9 196.1,124.5" fill="#9be8ff"/><rect x="104.2" y="184.9" width="11.9" height="5" rx="2.5" fill="#cfd3e0"/><rect x="134.7" y="184.9" width="11.9" height="5" rx="2.5" fill="#cfd3e0"/></svg>