<?xml version="1.0" encoding="utf-8"?>
<svg viewBox="0 0 384 336" xmlns="http://www.w3.org/2000/svg" width="100%" preserveAspectRatio="xMidYMid meet" role="img"><defs><linearGradient id="g94387" x1="0" y1="0" x2="0" y2="1"><stop offset="0" stop-color="#1e2b3c"/><stop offset="1" stop-color="#151d29"/></linearGradient><clipPath id="cg94387"><rect x="4" y="4" width="376" height="328" rx="12"/></clipPath></defs><rect x="4" y="4" width="376" height="328" rx="12" fill="url(#g94387)" stroke="#3a5170"/><g clip-path="url(#cg94387)" stroke="#2b3d52" stroke-width="1" opacity="0.45"><line x1="28" y1="4" x2="28" y2="332"/><line x1="52" y1="4" x2="52" y2="332"/><line x1="76" y1="4" x2="76" y2="332"/><line x1="100" y1="4" x2="100" y2="332"/><line x1="124" y1="4" x2="124" y2="332"/><line x1="148" y1="4" x2="148" y2="332"/><line x1="172" y1="4" x2="172" y2="332"/><line x1="196" y1="4" x2="196" y2="332"/><line x1="220" y1="4" x2="220" y2="332"/><line x1="244" y1="4" x2="244" y2="332"/><line x1="268" y1="4" x2="268" y2="332"/><line x1="292" y1="4" x2="292" y2="332"/><line x1="316" y1="4" x2="316" y2="332"/><line x1="340" y1="4" x2="340" y2="332"/><line x1="364" y1="4" x2="364" y2="332"/><line x1="4" y1="28" x2="380" y2="28"/><line x1="4" y1="52" x2="380" y2="52"/><line x1="4" y1="76" x2="380" y2="76"/><line x1="4" y1="100" x2="380" y2="100"/><line x1="4" y1="124" x2="380" y2="124"/><line x1="4" y1="148" x2="380" y2="148"/><line x1="4" y1="172" x2="380" y2="172"/><line x1="4" y1="196" x2="380" y2="196"/><line x1="4" y1="220" x2="380" y2="220"/><line x1="4" y1="244" x2="380" y2="244"/><line x1="4" y1="268" x2="380" y2="268"/><line x1="4" y1="292" x2="380" y2="292"/><line x1="4" y1="316" x2="380" y2="316"/></g><g transform="translate(197.40,224.98) scale(1.2363)"><path d="M -4.3 -98.9 Q -21.2 -77.7 -25.5 -29.5 L -7.9 -59.4 Z" fill="#2a4d75" opacity="0.85"/><polygon points="-18.1,1.6 -33.7,-31.8 -13.4,-62.7 -2.5,-54.4 -23.7,-30.7 -10.9,-1.6" fill="#7d9cbb" opacity="1.00"/><circle cx="-14.5" cy="-0.0" r="4.0" fill="#7d9cbb"/><circle cx="-7.9" cy="-58.6" r="6.9" fill="#7d9cbb"/><polygon points="-4.9,-94.3 -23.6,-89.7 -7.6,-79.5 -10.7,-74.9 -31.5,-90.4 -9.2,-104.0" fill="#7d9cbb" opacity="1.00"/><circle cx="-7.0" cy="-99.1" r="5.3" fill="#7d9cbb"/><circle cx="-9.1" cy="-77.2" r="2.8" fill="#7d9cbb"/><path d="M -9.8 -59.6 L -35.1 -26.6 Q -19.2 -16.1 -1.1 -25.3 Q -1.1 -25.3 15.6 -16.1 Q 15.6 -16.1 31.5 -26.6 L 9.8 -57.6 Z" fill="#3f6fa2"/><polygon points="10.7,-1.7 23.2,-30.6 1.9,-54.0 13.9,-63.1 34.2,-31.9 18.4,1.7" fill="#dfeaf7" opacity="1.00"/><circle cx="14.5" cy="-0.0" r="4.2" fill="#dfeaf7"/><circle cx="7.9" cy="-58.6" r="7.5" fill="#dfeaf7"/><polygon points="15.7,-96.8 12.8,-81.9 8.0,-71.3 9.5,-57.6 -9.5,-59.6 -5.2,-72.7 -7.7,-84.1 -7.5,-99.2" fill="#3f6fa2"/><polygon points="-9.5,-59.6 -5.2,-72.7 -7.7,-84.1 -7.5,-99.2 15.7,-96.8" fill="#2a4d75" opacity="0.55"/><polygon points="6.5,-111.4 -3.6,-101.8 -13.6,-76.2 -16.1,-76.9 -10.1,-104.9 -0.6,-117.7" fill="#a8d8f2" opacity="1.00"/><circle cx="2.9" cy="-114.6" r="4.8" fill="#a8d8f2"/><circle cx="-14.9" cy="-76.5" r="1.3" fill="#a8d8f2"/><polygon points="6.3,-113.1 -2.3,-95.8 -10.3,-78.6 -12.3,-79.3 -7.5,-97.9 -0.4,-116.1" fill="#6ba7cd" opacity="1.00"/><circle cx="2.9" cy="-114.6" r="3.7" fill="#6ba7cd"/><circle cx="-11.3" cy="-78.9" r="1.0" fill="#6ba7cd"/><polygon points="2.7,-111.4 -1.2,-113.8 -7.5,-94.8 -9.2,-95.2 -5.3,-116.2 3.2,-117.7" fill="#a8d8f2" opacity="1.00"/><circle cx="2.9" cy="-114.6" r="3.2" fill="#a8d8f2"/><circle cx="-8.3" cy="-95.0" r="0.9" fill="#a8d8f2"/><polygon points="8.4,-127.1 16.7,-115.6 -6.3,-112.5 5.0,-122.8" fill="#a8d8f2"/><circle cx="6.5" cy="-114.0" r="10.3" fill="#dfeaf7"/><polygon points="19.8,-100.2 32.9,-78.1 12.0,-63.6 8.6,-68.4 24.5,-79.5 10.7,-93.4" fill="#dfeaf7" opacity="1.00"/><circle cx="15.3" cy="-96.8" r="5.7" fill="#dfeaf7"/><circle cx="10.3" cy="-66.0" r="2.9" fill="#dfeaf7"/><polygon points="-45.7,-100.9 59.2,-39.7 57.5,-36.8 -47.9,-97.0" fill="#c3d2e2" opacity="1.00"/><circle cx="-46.8" cy="-99.0" r="2.2" fill="#c3d2e2"/><circle cx="58.4" cy="-38.2" r="1.7" fill="#c3d2e2"/><line x1="-46.8" y1="-99.0" x2="58.4" y2="-38.2" stroke="#8fa3b8" stroke-width="1.6" opacity="0.7"/><polygon points="-45.1,-101.9 -41.4,-99.2 -44.3,-94.1 -48.5,-96.0" fill="#8fa3b8" opacity="1.00"/><circle cx="-46.8" cy="-99.0" r="3.4" fill="#8fa3b8"/><circle cx="-42.8" cy="-96.7" r="2.9" fill="#8fa3b8"/><polygon points="80.1,-25.7 73.5,-35.3 59.4,-40.1 57.3,-36.4 68.5,-26.6" fill="#a9ecff"/><line x1="58.4" y1="-38.2" x2="80.1" y2="-25.7" stroke="#ffffff" stroke-width="1.4" opacity="0.85"/><circle cx="-9.1" cy="-77.2" r="3.7" fill="#dfeaf7"/><circle cx="10.3" cy="-66.0" r="3.7" fill="#dfeaf7"/><rect x="-21.1" y="-3.0" width="13.2" height="6" rx="3" fill="#93b6d6"/><rect x="7.9" y="-3.0" width="13.2" height="6" rx="3" fill="#93b6d6"/></g><line x1="202.5" y1="103.9" x2="236.5" y2="88.9" stroke="#ffc83d" stroke-width="1.4" opacity="0.8"/><circle cx="202.5" cy="103.9" r="2.8" fill="#ffc83d"/><text x="232.5" y="92.9" fill="#e8f4ff" font-size="12.5" text-anchor="start" font-family="Segoe UI, Roboto, sans-serif" paint-order="stroke" stroke="#111a26" stroke-width="3.4" stroke-linejoin="round">не спеши</text><line x1="16" y1="292" x2="368" y2="292" stroke="#3a5170" opacity="0.7"/><circle cx="30" cy="312" r="12" fill="#69dcff" opacity="0.28"/><text x="30" y="317" fill="#69dcff" font-size="13" font-weight="700" text-anchor="middle" font-family="Segoe UI, Roboto, sans-serif">6</text><text x="50" y="311" fill="#e8f4ff" font-size="13.5" font-weight="700" font-family="Segoe UI, Roboto, sans-serif">ВОЗВРАТ</text><text x="50" y="327" fill="#9db6cf" font-size="11" font-family="Segoe UI, Roboto, sans-serif">RECOIL · 41.60 С</text></svg>