<?xml version="1.0" encoding="utf-8"?>
<svg viewBox="76 -55 98 351" xmlns="http://www.w3.org/2000/svg" role="img" width="100%" preserveAspectRatio="xMidYMid meet"><g opacity="0.45" fill="none" stroke="#5fd4ff" stroke-width="2.6" stroke-dasharray="6 5" stroke-linecap="round" stroke-linejoin="round"><polyline points="112.3,187.4 96.0,157.3 125.4,130.5 154.8,157.3 138.5,187.4"/><polyline points="125.4,130.5 132.3,91.5"/><polyline points="128.2,92.4 148.6,237.5"/><circle cx="137.4" cy="76.1" r="10.3"/></g><polyline points="116.0,187.4 106.2,154.5 117.5,122.1" fill="none" stroke="#6f768c" stroke-width="9.0" stroke-linecap="round" stroke-linejoin="round"/><polyline points="114.2,82.5 104.8,102.9 127.1,100.3" fill="none" stroke="#6f768c" stroke-width="7.5" stroke-linecap="round" stroke-linejoin="round"/><polygon points="112.7,112.9 93.7,148.5 102.4,157.8 125.4,151.2 148.4,157.8 157.1,148.5 138.1,112.9" fill="#3b4a6b"/><polyline points="134.8,187.4 144.6,154.5 133.3,122.1" fill="none" stroke="#cfd3e0" stroke-width="10.0" stroke-linecap="round" stroke-linejoin="round"/><polygon points="114.2,82.5 136.6,82.5 133.3,122.1 117.5,122.1" fill="#28324a"/><polyline points="114.2,82.5 136.6,82.5" fill="none" stroke="#3b4a6b" stroke-width="2.2" stroke-linecap="round"/><polygon points="108.0,62.0 121.6,52.6 132.6,61.6" fill="#3b4a6b"/><circle cx="123.4" cy="66.4" r="10.3" fill="#cfd3e0"/><polyline points="136.6,82.5 124.7,101.5 127.1,79.2" fill="none" stroke="#28324a" stroke-width="12.0" stroke-linecap="round" stroke-linejoin="round"/><polyline points="136.6,82.5 124.7,101.5 127.1,79.2" fill="none" stroke="#cfd3e0" stroke-width="8.0" stroke-linecap="round" stroke-linejoin="round"/><line x1="127.1" y1="111.4" x2="127.1" y2="-12.6" stroke="#c8a271" stroke-width="4.0" stroke-linecap="round"/><polygon points="127.1,-35.1 122.2,-12.6 132.1,-12.6" fill="#9be8ff"/><rect x="110.0" y="184.9" width="11.9" height="5" rx="2.5" fill="#cfd3e0"/><rect x="128.9" y="184.9" width="11.9" height="5" rx="2.5" fill="#cfd3e0"/><path d="M 127.1 79.2 Q 122.1 101.2 128.2 113.4" fill="none" stroke="#ffb020" stroke-width="3.2" stroke-linecap="round" opacity="0.95"/><polygon points="132.3,121.4 122.2,113.2 131.7,108.5" fill="#ffb020"/><path d="M 127.1 -35.1 Q 77.9 105.9 144.3 229.6" fill="none" stroke="#9be8ff" stroke-width="3.2" stroke-linecap="round" opacity="0.95"/><polygon points="148.6,237.5 138.3,229.6 147.6,224.5" fill="#9be8ff"/></svg>