<?xml version="1.0" encoding="utf-8"?>
<svg viewBox="76 -55 98 351" xmlns="http://www.w3.org/2000/svg" role="img" width="100%" preserveAspectRatio="xMidYMid meet"><polyline points="114.5,187.4 103.8,154.8 117.5,123.3" fill="none" stroke="#6f768c" stroke-width="9.0" stroke-linecap="round" stroke-linejoin="round"/><polyline points="114.2,83.7 125.6,103.0 143.8,133.8" fill="none" stroke="#6f768c" stroke-width="7.5" stroke-linecap="round" stroke-linejoin="round"/><polygon points="112.7,114.1 93.7,149.7 102.4,159.0 125.4,152.4 148.4,159.0 157.1,149.7 138.1,114.1" fill="#3b4a6b"/><polyline points="136.3,187.4 147.0,154.8 133.3,123.3" fill="none" stroke="#cfd3e0" stroke-width="10.0" stroke-linecap="round" stroke-linejoin="round"/><polygon points="114.2,83.7 136.6,83.7 133.3,123.3 117.5,123.3" fill="#28324a"/><polyline points="114.2,83.7 136.6,83.7" fill="none" stroke="#3b4a6b" stroke-width="2.2" stroke-linecap="round"/><polygon points="110.0,62.3 125.4,53.6 134.7,63.9" fill="#3b4a6b"/><circle cx="125.4" cy="67.5" r="10.3" fill="#cfd3e0"/><polyline points="136.6,83.7 139.3,106.0 144.3,147.8" fill="none" stroke="#28324a" stroke-width="12.0" stroke-linecap="round" stroke-linejoin="round"/><polyline points="136.6,83.7 139.3,106.0 144.3,147.8" fill="none" stroke="#cfd3e0" stroke-width="8.0" stroke-linecap="round" stroke-linejoin="round"/><line x1="143.7" y1="130.3" x2="148.0" y2="254.3" stroke="#c8a271" stroke-width="4.0" stroke-linecap="round"/><polygon points="148.8,276.7 152.9,254.1 143.1,254.4" fill="#9be8ff"/><rect x="108.6" y="184.9" width="11.9" height="5" rx="2.5" fill="#cfd3e0"/><rect x="130.3" y="184.9" width="11.9" height="5" rx="2.5" fill="#cfd3e0"/></svg>