<?xml version="1.0" encoding="utf-8"?>
<svg viewBox="84 49 110 187" xmlns="http://www.w3.org/2000/svg" role="img" width="100%" preserveAspectRatio="xMidYMid meet"><g opacity="0.45" fill="none" stroke="#5fd4ff" stroke-width="2.6" stroke-dasharray="6 5" stroke-linecap="round" stroke-linejoin="round"><polyline points="115.2,187.4 103.1,155.3 125.4,124.2 147.7,155.3 135.6,187.4"/><polyline points="125.4,124.2 125.4,84.6"/><polyline points="116.5,80.5 171.4,216.3"/><circle cx="120.4" cy="69.1" r="10.3"/></g><polyline points="115.2,187.4 103.1,155.3 117.5,124.2" fill="none" stroke="#6f768c" stroke-width="9.0" stroke-linecap="round" stroke-linejoin="round"/><polyline points="114.2,84.6 105.6,105.3 127.8,108.5" fill="none" stroke="#6f768c" stroke-width="7.5" stroke-linecap="round" stroke-linejoin="round"/><polygon points="112.7,114.9 93.7,150.6 102.4,159.8 125.4,153.2 148.4,159.8 157.1,150.6 138.1,114.9" fill="#3b4a6b"/><polyline points="135.6,187.4 147.7,155.3 133.3,124.2" fill="none" stroke="#cfd3e0" stroke-width="10.0" stroke-linecap="round" stroke-linejoin="round"/><polygon points="114.2,84.6 136.6,84.6 133.3,124.2 117.5,124.2" fill="#28324a"/><polyline points="114.2,84.6 136.6,84.6" fill="none" stroke="#3b4a6b" stroke-width="2.2" stroke-linecap="round"/><polygon points="105.3,66.4 114.9,56.3 128.4,62.5" fill="#3b4a6b"/><circle cx="119.7" cy="69.4" r="10.3" fill="#cfd3e0"/><polyline points="136.6,84.6 141.7,106.4 135.7,128.0" fill="none" stroke="#28324a" stroke-width="12.0" stroke-linecap="round" stroke-linejoin="round"/><polyline points="136.6,84.6 141.7,106.4 135.7,128.0" fill="none" stroke="#cfd3e0" stroke-width="8.0" stroke-linecap="round" stroke-linejoin="round"/><line x1="116.5" y1="80.5" x2="163.0" y2="195.5" stroke="#c8a271" stroke-width="4.0" stroke-linecap="round"/><polygon points="171.4,216.3 167.5,193.7 158.4,197.4" fill="#9be8ff"/><rect x="109.3" y="184.9" width="11.9" height="5" rx="2.5" fill="#cfd3e0"/><rect x="129.6" y="184.9" width="11.9" height="5" rx="2.5" fill="#cfd3e0"/></svg>